<svg xmlns="http://www.w3.org/2000/svg" overflow="visible" viewBox="-0.1 -0.7 0.8 0.8"><desc>Show u*,v* UCS diagram with the gamuts of sRGB and display-p3. Display-p3 colors fond in the Web Almanac search are displayed, together with the sRGB fallback and the ΔE2000 between the pair of colors.</desc><path fill="none" stroke="#000" stroke-width=".003" d="M 0.256804 -0.016594 L 0.256637 -0.016593 L 0.256418 -0.016266 L 0.256085 -0.016263 L 0.255699 -0.015935 L 0.255200 -0.015932 L 0.254535 -0.015927 L 0.253704 -0.015921 L 0.252207 -0.016885 L 0.249615 -0.019128 L 0.246120 -0.022623 L 0.241063 -0.027948 L 0.234690 -0.035011 L 0.226630 -0.043680 L 0.216060 -0.054946 L 0.203340 -0.068779 L 0.187720 -0.087114 L 0.168963 -0.111946 L 0.144076 -0.150984 L 0.114692 -0.204374 L 0.082816 -0.270829 L 0.052134 -0.342686 L 0.028159 -0.411679 L 0.011891 -0.469843 L 0.003473 -0.513066 L 0.001438 -0.543162 L 0.004643 -0.563843 L 0.005859 -0.567036 L 0.007213 -0.569939 L 0.008771 -0.572575 L 0.010438 -0.574905 L 0.012285 -0.576969 L 0.014220 -0.578754 L 0.016315 -0.580309 L 0.018482 -0.581618 L 0.020756 -0.582743 L 0.023116 -0.583667 L 0.025566 -0.584422 L 0.028050 -0.585009 L 0.030633 -0.585478 L 0.033285 -0.585851 L 0.036008 -0.586142 L 0.050059 -0.586754 L 0.064335 -0.586523 L 0.079224 -0.585616 L 0.095269 -0.584113 L 0.112701 -0.582069 L 0.131858 -0.579553 L 0.153101 -0.576592 L 0.176586 -0.573182 L 0.202596 -0.569364 L 0.231170 -0.565107 L 0.262343 -0.560441 L 0.295958 -0.555411 L 0.331527 -0.550115 L 0.368060 -0.544626 L 0.403475 -0.539334 L 0.437943 -0.534187 L 0.469171 -0.529561 L 0.496768 -0.525419 L 0.520257 -0.521894 L 0.539920 -0.518977 L 0.556503 -0.516489 L 0.570880 -0.514332 L 0.583036 -0.512508 L 0.592866 -0.511070 L 0.600496 -0.509926 L 0.606437 -0.509035 L 0.610879 -0.508368 L 0.613777 -0.507933 L 0.616162 -0.507576 L 0.618025 -0.507296 L 0.619897 -0.507015 L 0.621507 -0.506774 L 0.622584 -0.506612 L 0.623123 -0.506531 L 0.623393 -0.506491 L 0.623393 -0.506491 L 0.623393 -0.506491 L 0.623393 -0.506491 L 0.623393 -0.506491 L 0.623393 -0.506491 L 0.623393 -0.506491 L 0.623393 -0.506491 L 0.623393 -0.506491 L 0.623393 -0.506491 L 0.623393 -0.506491 L 0.623393 -0.506491 L 0.623393 -0.506491 L 0.623393 -0.506491 L 0.623393 -0.506491 L 0.623393 -0.506491 L 0.623393 -0.506491 Z"/><polygon fill="none" stroke="#CCC" stroke-dasharray=".004 .003" stroke-width=".004" points=".451 -.523 .125 -.563 .175 -.158"/><circle cx=".451" cy="-.523" r=".006" fill="red" fill-opacity=".4"/><circle cx=".125" cy="-.563" r=".006" fill="green" fill-opacity=".4"/><circle cx=".175" cy="-.158" r=".006" fill="#00f" fill-opacity=".4"/><circle cx=".204" cy="-.553" r=".006" fill="#ff0" fill-opacity=".4"/><circle cx=".138" cy="-.456" r=".006" fill="#0ff" fill-opacity=".4"/><circle cx=".305" cy="-.33" r=".006" fill="#f0f" fill-opacity=".4"/><circle cx=".209" cy="-.488" r=".006" fill="#fff" stroke="#777" stroke-width=".002"/><polygon fill="none" stroke="#555" stroke-dasharray=".006 .003" stroke-width=".004" points=".496 -.526 .099 -.578 .175 -.158"/><circle cx=".496" cy="-.526" r=".006" fill="red"/><circle cx=".099" cy="-.578" r=".006" fill="green"/><circle cx=".175" cy="-.158" r=".006" fill="#00f"/><circle cx=".205" cy="-.564" r=".006" fill="#ff0"/><circle cx=".121" cy="-.454" r=".006" fill="#0ff"/><circle cx=".325" cy="-.329" r=".006" fill="#f0f"/><g pointer-events="visiblePainted"><g><polyline stroke="gray" stroke-width=".002" points=".248 -.545 .258 -.551"><title>ΔE2k = 3.88</title></polyline><circle cx=".258" cy="-.551" r=".002" fill="#fff" stroke="red" stroke-width=".001"/><circle cx=".248" cy="-.545" r=".003" fill="rgba(255,205,63,1)"/></g><g><polyline stroke="gray" stroke-width=".002" points=".23 -.236 .237 -.235"><title>ΔE2k = 1.933</title></polyline><circle cx=".237" cy="-.235" r=".002" fill="#fff" stroke="red" stroke-width=".001"/><circle cx=".23" cy="-.236" r=".003" fill="rgba(120,0,255,1)"/></g><g><polyline stroke="gray" stroke-width=".002" points=".204 -.482 .203 -.482"><title>ΔE2k = 0.391</title></polyline><circle cx=".203" cy="-.482" r=".002" fill="rgb(47.532% 50.082% 52.233%)" stroke="gray" stroke-width=".001"/><circle cx=".204" cy="-.482" r=".003" fill="rgba(121,127,132,1)"/></g><g><polyline stroke="gray" stroke-width=".002" points=".209 -.488 .209 -.488"><title>ΔE2k = 0.274</title></polyline><circle cx=".209" cy="-.488" r=".002" fill="rgb(77.994% 78.001% 78.008%)" stroke="gray" stroke-width=".001"/><circle cx=".209" cy="-.488" r=".003" fill="rgba(200,200,200,1)"/></g><g><polyline stroke="gray" stroke-width=".002" points=".209 -.486 .209 -.488"><title>ΔE2k = 1.474</title></polyline><circle cx=".209" cy="-.488" r=".002" fill="rgb(38.997% 39% 39.004%)" stroke="gray" stroke-width=".001"/><circle cx=".209" cy="-.486" r=".003" fill="rgba(97,97,99,1)"/></g><g><polyline stroke="gray" stroke-width=".002" points=".198 .468 .198 .468"><title>ΔE2k = 0</title></polyline><circle cx=".198" cy=".468" r=".002" fill="rgb(0% 0% 0%)" stroke="gray" stroke-width=".001"/><circle cx=".198" cy=".468" r=".003" fill="rgba(0,0,0,1)"/></g><g><polyline stroke="gray" stroke-width=".002" points=".209 -.488 .209 -.488"><title>ΔE2k = 0.015</title></polyline><circle cx=".209" cy="-.488" r=".002" fill="#fff" stroke="red" stroke-width=".001"/><circle cx=".209" cy="-.488" r=".003" fill="rgba(255,255,255,1)"/></g><g><polyline stroke="gray" stroke-width=".002" points=".219 -.377 .223 -.371"><title>ΔE2k = 1.326</title></polyline><circle cx=".223" cy="-.371" r=".002" fill="rgb(34.501% 24.596% 54.786%)" stroke="gray" stroke-width=".001"/><circle cx=".219" cy="-.377" r=".003" fill="rgba(84,64,135,1)"/></g><g><polyline stroke="gray" stroke-width=".002" points=".219 -.385 .223 -.38"><title>ΔE2k = 1.348</title></polyline><circle cx=".223" cy="-.38" r=".002" fill="rgb(53.088% 39.452% 80.472%)" stroke="gray" stroke-width=".001"/><circle cx=".219" cy="-.385" r=".003" fill="rgba(131,103,201,1)"/></g><g><polyline stroke="gray" stroke-width=".002" points=".155 -.461 .139 -.463"><title>ΔE2k = 5.591</title></polyline><circle cx=".139" cy="-.463" r=".002" fill="#fff" stroke="red" stroke-width=".001"/><circle cx=".155" cy="-.461" r=".003" fill="rgba(68,185,208,1)"/></g><g><polyline stroke="gray" stroke-width=".002" points=".443 -.507 .482 -.507"><title>ΔE2k = 3.529</title></polyline><circle cx=".482" cy="-.507" r=".002" fill="#fff" stroke="red" stroke-width=".001"/><circle cx=".443" cy="-.507" r=".003" fill="#FF0048"/></g><g><polyline stroke="gray" stroke-width=".002" points=".266 -.544 .282 -.55"><title>ΔE2k = 4.701</title></polyline><circle cx=".282" cy="-.55" r=".002" fill="#fff" stroke="red" stroke-width=".001"/><circle cx=".266" cy="-.544" r=".003" fill="rgba(241,174,50,1)"/></g><g><polyline stroke="gray" stroke-width=".002" points=".262 -.546 .275 -.551"><title>ΔE2k = 4.218</title></polyline><circle cx=".275" cy="-.551" r=".002" fill="#fff" stroke="red" stroke-width=".001"/><circle cx=".262" cy="-.546" r=".003" fill="rgba(245,181,40,1)"/></g><g><polyline stroke="gray" stroke-width=".002" points=".229 -.319 .236 -.315"><title>ΔE2k = 2.143</title></polyline><circle cx=".236" cy="-.315" r=".002" fill="#fff" stroke="red" stroke-width=".001"/><circle cx=".229" cy="-.319" r=".003" fill="#9353FF"/></g><g><polyline stroke="gray" stroke-width=".002" points=".231 -.241 .238 -.238"><title>ΔE2k = 1.321</title></polyline><circle cx=".238" cy="-.238" r=".002" fill="#fff" stroke="red" stroke-width=".001"/><circle cx=".231" cy="-.241" r=".003" fill="rgba(75,3,161,1)"/></g><g><polyline stroke="gray" stroke-width=".002" points=".457 -.525 .499 -.526"><title>ΔE2k = 7.115</title></polyline><circle cx=".499" cy="-.526" r=".002" fill="#fff" stroke="red" stroke-width=".001"/><circle cx=".457" cy="-.525" r=".003" fill="rgba(255,0,0,0.85)"/></g><g><polyline stroke="gray" stroke-width=".002" points=".219 -.377 .223 -.371"><title>ΔE2k = 1.326</title></polyline><circle cx=".223" cy="-.371" r=".002" fill="rgb(34.501% 24.596% 54.786%)" stroke="gray" stroke-width=".001"/><circle cx=".219" cy="-.377" r=".003" fill="rgba(84,64,135,1)"/></g><g><polyline stroke="gray" stroke-width=".002" points=".219 -.385 .223 -.38"><title>ΔE2k = 1.348</title></polyline><circle cx=".223" cy="-.38" r=".002" fill="rgb(53.088% 39.452% 80.472%)" stroke="gray" stroke-width=".001"/><circle cx=".219" cy="-.385" r=".003" fill="rgba(131,103,201,1)"/></g><g><polyline stroke="gray" stroke-width=".002" points=".155 -.461 .139 -.463"><title>ΔE2k = 5.591</title></polyline><circle cx=".139" cy="-.463" r=".002" fill="#fff" stroke="red" stroke-width=".001"/><circle cx=".155" cy="-.461" r=".003" fill="rgba(68,185,208,1)"/></g><g><polyline stroke="gray" stroke-width=".002" points=".212 -.265 .216 -.261"><title>ΔE2k = 1.584</title></polyline><circle cx=".216" cy="-.261" r=".002" fill="#fff" stroke="red" stroke-width=".001"/><circle cx=".212" cy="-.265" r=".003" fill="#6d3bff"/></g><g><polyline stroke="gray" stroke-width=".002" points=".137 -.549 .112 -.559"><title>ΔE2k = 4.958</title></polyline><circle cx=".112" cy="-.559" r=".002" fill="#fff" stroke="red" stroke-width=".001"/><circle cx=".137" cy="-.549" r=".003" fill="#03d658"/></g><g><polyline stroke="gray" stroke-width=".002" points=".422 -.529 .461 -.531"><title>ΔE2k = 7.14</title></polyline><circle cx=".461" cy="-.531" r=".002" fill="#fff" stroke="red" stroke-width=".001"/><circle cx=".422" cy="-.529" r=".003" fill="#ff3900"/></g><g><polyline stroke="gray" stroke-width=".002" points=".159 -.518 .143 -.522"><title>ΔE2k = 4.284</title></polyline><circle cx=".143" cy="-.522" r=".002" fill="rgb(20.666% 98.703% 67.808%)" stroke="gray" stroke-width=".001"/><circle cx=".159" cy="-.518" r=".003" fill="#7cf8b3"/></g><g><polyline stroke="gray" stroke-width=".002" points=".209 -.488 .209 -.488"><title>ΔE2k = 0.028</title></polyline><circle cx=".209" cy="-.488" r=".002" fill="rgb(97.293% 97.301% 97.31%)" stroke="gray" stroke-width=".001"/><circle cx=".209" cy="-.488" r=".003" fill="#f8f8f8"/></g><g><polyline stroke="gray" stroke-width=".002" points=".2 -.483 .198 -.482"><title>ΔE2k = 1.918</title></polyline><circle cx=".198" cy="-.482" r=".002" fill="rgb(85.814% 94.781% 98.033%)" stroke="gray" stroke-width=".001"/><circle cx=".2" cy="-.483" r=".003" fill="#e3f5fd"/></g><g><polyline stroke="gray" stroke-width=".002" points=".389 -.523 .424 -.525"><title>ΔE2k = 3.681</title></polyline><circle cx=".424" cy="-.525" r=".002" fill="rgb(98.406% 20.26% 12.445%)" stroke="gray" stroke-width=".001"/><circle cx=".389" cy="-.523" r=".003" fill="#e74832"/></g><g><polyline stroke="gray" stroke-width=".002" points=".185 -.399 .181 -.392"><title>ΔE2k = 1.413</title></polyline><circle cx=".181" cy="-.392" r=".002" fill="rgb(17.295% 24.502% 42.915%)" stroke="gray" stroke-width=".001"/><circle cx=".185" cy="-.399" r=".003" fill="#303e6a"/></g><g><polyline stroke="gray" stroke-width=".002" points=".171 -.271 .167 -.263"><title>ΔE2k = 1.055</title></polyline><circle cx=".167" cy="-.263" r=".002" fill="#fff" stroke="red" stroke-width=".001"/><circle cx=".171" cy="-.271" r=".003" fill="#08257c"/></g><g><polyline stroke="gray" stroke-width=".002" points=".21 -.488 .21 -.488"><title>ΔE2k = 0.174</title></polyline><circle cx=".21" cy="-.488" r=".002" fill="rgb(43.986% 43.484% 43.497%)" stroke="gray" stroke-width=".001"/><circle cx=".21" cy="-.488" r=".003" fill="#706f6f"/></g><g><polyline stroke="gray" stroke-width=".002" points=".155 -.389 .142 -.38"><title>ΔE2k = 3.211</title></polyline><circle cx=".142" cy="-.38" r=".002" fill="#fff" stroke="red" stroke-width=".001"/><circle cx=".155" cy="-.389" r=".003" fill="#005992"/></g><g><polyline stroke="gray" stroke-width=".002" points=".205 -.474 .204 -.473"><title>ΔE2k = 0.317</title></polyline><circle cx=".204" cy="-.473" r=".002" fill="rgb(10.107% 10.617% 12.355%)" stroke="gray" stroke-width=".001"/><circle cx=".205" cy="-.474" r=".003" fill="#1a1b1f"/></g><g><polyline stroke="gray" stroke-width=".002" points=".203 -.483 .202 -.483"><title>ΔE2k = 1.321</title></polyline><circle cx=".202" cy="-.483" r=".002" fill="rgb(86.763% 92.38% 95.25%)" stroke="gray" stroke-width=".001"/><circle cx=".203" cy="-.483" r=".003" fill="#e0ebf2"/></g><g><polyline stroke="gray" stroke-width=".002" points=".337 -.489 .363 -.489"><title>ΔE2k = 3.146</title></polyline><circle cx=".363" cy="-.489" r=".002" fill="rgb(98.778% 32.692% 48.887%)" stroke="gray" stroke-width=".001"/><circle cx=".337" cy="-.489" r=".003" fill="#e9607e"/></g><g><polyline stroke="gray" stroke-width=".002" points=".209 -.488 .209 -.488"><title>ΔE2k = 0.027</title></polyline><circle cx=".209" cy="-.488" r=".002" fill="rgb(13.299% 13.3% 13.302%)" stroke="gray" stroke-width=".001"/><circle cx=".209" cy="-.488" r=".003" fill="#222"/></g><g><polyline stroke="gray" stroke-width=".002" points=".213 -.497 .214 -.498"><title>ΔE2k = 0.805</title></polyline><circle cx=".214" cy="-.498" r=".002" fill="#fff" stroke="red" stroke-width=".001"/><circle cx=".213" cy="-.497" r=".003" fill="#fef8e7"/></g><g><polyline stroke="gray" stroke-width=".002" points=".367 -.533 .4 -.536"><title>ΔE2k = 4.789</title></polyline><circle cx=".4" cy="-.536" r=".002" fill="#fff" stroke="red" stroke-width=".001"/><circle cx=".367" cy="-.533" r=".003" fill="#e15718"/></g><g><polyline stroke="gray" stroke-width=".002" points=".16 -.379 .15 -.371"><title>ΔE2k = 2.297</title></polyline><circle cx=".15" cy="-.371" r=".002" fill="#fff" stroke="red" stroke-width=".001"/><circle cx=".16" cy="-.379" r=".003" fill="#082e54"/></g><g><polyline stroke="gray" stroke-width=".002" points=".206 -.484 .205 -.484"><title>ΔE2k = 0.666</title></polyline><circle cx=".205" cy="-.484" r=".002" fill="rgb(84.965% 87.896% 90.484%)" stroke="gray" stroke-width=".001"/><circle cx=".206" cy="-.484" r=".003" fill="#dae0e6"/></g><g><polyline stroke="gray" stroke-width=".002" points=".213 -.488 .214 -.488"><title>ΔE2k = 1.003</title></polyline><circle cx=".214" cy="-.488" r=".002" fill="#fff" stroke="red" stroke-width=".001"/><circle cx=".213" cy="-.488" r=".003" fill="#fff6f8"/></g><g><polyline stroke="gray" stroke-width=".002" points=".156 -.424 .143 -.418"><title>ΔE2k = 3.556</title></polyline><circle cx=".143" cy="-.418" r=".002" fill="#fff" stroke="red" stroke-width=".001"/><circle cx=".156" cy="-.424" r=".003" fill="#2a93ca"/></g><g><polyline stroke="gray" stroke-width=".002" points=".143 -.492 .123 -.493"><title>ΔE2k = 4.376</title></polyline><circle cx=".123" cy="-.493" r=".002" fill="#fff" stroke="red" stroke-width=".001"/><circle cx=".143" cy="-.492" r=".003" fill="#009183"/></g><g><polyline stroke="gray" stroke-width=".002" points=".348 -.525 .378 -.527"><title>ΔE2k = 3.49</title></polyline><circle cx=".378" cy="-.527" r=".002" fill="#fff" stroke="red" stroke-width=".001"/><circle cx=".348" cy="-.525" r=".003" fill="#ff6e47"/></g><g><polyline stroke="gray" stroke-width=".002" points=".209 -.482 .208 -.481"><title>ΔE2k = 0.167</title></polyline><circle cx=".208" cy="-.481" r=".002" fill="rgb(10.599% 10.6% 11.477%)" stroke="gray" stroke-width=".001"/><circle cx=".209" cy="-.482" r=".003" fill="#1b1b1d"/></g><g><polyline stroke="gray" stroke-width=".002" points=".187 -.445 .181 -.44"><title>ΔE2k = 1.882</title></polyline><circle cx=".181" cy="-.44" r=".002" fill="rgb(28.759% 39.501% 52.515%)" stroke="gray" stroke-width=".001"/><circle cx=".187" cy="-.445" r=".003" fill="#4f6483"/></g><g><polyline stroke="gray" stroke-width=".002" points=".433 -.503 .472 -.503"><title>ΔE2k = 2.967</title></polyline><circle cx=".472" cy="-.503" r=".002" fill="#fff" stroke="red" stroke-width=".001"/><circle cx=".433" cy="-.503" r=".003" fill="#a50832"/></g><g><polyline stroke="gray" stroke-width=".002" points=".206 -.484 .205 -.484"><title>ΔE2k = 0.666</title></polyline><circle cx=".205" cy="-.484" r=".002" fill="rgb(84.965% 87.896% 90.484%)" stroke="gray" stroke-width=".001"/><circle cx=".206" cy="-.484" r=".003" fill="#dae0e6"/></g><g><polyline stroke="gray" stroke-width=".002" points=".209 -.488 .209 -.488"><title>ΔE2k = 0.025</title></polyline><circle cx=".209" cy="-.488" r=".002" fill="rgb(97.993% 98.001% 98.01%)" stroke="gray" stroke-width=".001"/><circle cx=".209" cy="-.488" r=".003" fill="#fafafa"/></g><g><polyline stroke="gray" stroke-width=".002" points=".414 -.47 .449 -.47"><title>ΔE2k = 3.113</title></polyline><circle cx=".449" cy="-.47" r=".002" fill="#fff" stroke="red" stroke-width=".001"/><circle cx=".414" cy="-.47" r=".003" fill="#c06"/></g><g><polyline stroke="gray" stroke-width=".002" points=".389 -.523 .424 -.525"><title>ΔE2k = 3.681</title></polyline><circle cx=".424" cy="-.525" r=".002" fill="rgb(98.406% 20.26% 12.445%)" stroke="gray" stroke-width=".001"/><circle cx=".389" cy="-.523" r=".003" fill="#e74832"/></g><g><polyline stroke="gray" stroke-width=".002" points=".144 -.542 .136 -.549"><title>ΔE2k = 2.338</title></polyline><circle cx=".136" cy="-.549" r=".002" fill="#fff" stroke="red" stroke-width=".001"/><circle cx=".144" cy="-.542" r=".003" fill="#48FF7E"/></g><g><polyline stroke="gray" stroke-width=".002" points=".286 -.546 .298 -.552"><title>ΔE2k = 5.777</title></polyline><circle cx=".298" cy="-.552" r=".002" fill="#fff" stroke="red" stroke-width=".001"/><circle cx=".286" cy="-.546" r=".003" fill="orange"/></g><g><polyline stroke="gray" stroke-width=".002" points=".248 -.551 .255 -.557"><title>ΔE2k = 4.606</title></polyline><circle cx=".255" cy="-.557" r=".002" fill="#fff" stroke="red" stroke-width=".001"/><circle cx=".248" cy="-.551" r=".003" fill="#FFCE00"/></g><g><polyline stroke="gray" stroke-width=".002" points=".179 -.171 .179 -.171"><title>ΔE2k = 1.052</title></polyline><circle cx=".179" cy="-.171" r=".002" fill="#fff" stroke="red" stroke-width=".001"/><circle cx=".179" cy="-.171" r=".003" fill="#00c"/></g><g><polyline stroke="gray" stroke-width=".002" points=".156 -.413 .143 -.405"><title>ΔE2k = 3.872</title></polyline><circle cx=".143" cy="-.405" r=".002" fill="#fff" stroke="red" stroke-width=".001"/><circle cx=".156" cy="-.413" r=".003" fill="#2db0fe"/></g><g><polyline stroke="gray" stroke-width=".002" points=".195 -.477 .191 -.475"><title>ΔE2k = 2.196</title></polyline><circle cx=".191" cy="-.475" r=".002" fill="#fff" stroke="red" stroke-width=".001"/><circle cx=".195" cy="-.477" r=".003" fill="#d1eeff"/></g><g><polyline stroke="gray" stroke-width=".002" points=".155 -.405 .143 -.395"><title>ΔE2k = 3.385</title></polyline><circle cx=".143" cy="-.395" r=".002" fill="#fff" stroke="red" stroke-width=".001"/><circle cx=".155" cy="-.405" r=".003" fill="#1da0ef"/></g><g><polyline stroke="gray" stroke-width=".002" points=".359 -.496 .388 -.497"><title>ΔE2k = 2.978</title></polyline><circle cx=".388" cy="-.497" r=".002" fill="#fff" stroke="red" stroke-width=".001"/><circle cx=".359" cy="-.496" r=".003" fill="#F95974"/></g><g><polyline stroke="gray" stroke-width=".002" points=".144 -.502 .124 -.504"><title>ΔE2k = 4.485</title></polyline><circle cx=".124" cy="-.504" r=".002" fill="#fff" stroke="red" stroke-width=".001"/><circle cx=".144" cy="-.502" r=".003" fill="#1BA388"/></g><g><polyline stroke="gray" stroke-width=".002" points=".212 -.265 .216 -.261"><title>ΔE2k = 1.584</title></polyline><circle cx=".216" cy="-.261" r=".002" fill="#fff" stroke="red" stroke-width=".001"/><circle cx=".212" cy="-.265" r=".003" fill="#6d3bff"/></g><g><polyline stroke="gray" stroke-width=".002" points=".2 -.483 .198 -.482"><title>ΔE2k = 1.918</title></polyline><circle cx=".198" cy="-.482" r=".002" fill="rgb(85.814% 94.781% 98.033%)" stroke="gray" stroke-width=".001"/><circle cx=".2" cy="-.483" r=".003" fill="#e3f5fd"/></g><g><polyline stroke="gray" stroke-width=".002" points=".422 -.529 .461 -.531"><title>ΔE2k = 7.14</title></polyline><circle cx=".461" cy="-.531" r=".002" fill="#fff" stroke="red" stroke-width=".001"/><circle cx=".422" cy="-.529" r=".003" fill="#ff3900"/></g><g><polyline stroke="gray" stroke-width=".002" points=".159 -.518 .143 -.522"><title>ΔE2k = 4.284</title></polyline><circle cx=".143" cy="-.522" r=".002" fill="rgb(20.666% 98.703% 67.808%)" stroke="gray" stroke-width=".001"/><circle cx=".159" cy="-.518" r=".003" fill="#7cf8b3"/></g><g><polyline stroke="gray" stroke-width=".002" points=".209 -.488 .209 -.488"><title>ΔE2k = 0.028</title></polyline><circle cx=".209" cy="-.488" r=".002" fill="rgb(97.293% 97.301% 97.31%)" stroke="gray" stroke-width=".001"/><circle cx=".209" cy="-.488" r=".003" fill="#f8f8f8"/></g><g><polyline stroke="gray" stroke-width=".002" points=".212 -.265 .153 -.323"><title>ΔE2k = 25.945</title></polyline><circle cx=".153" cy="-.323" r=".002" fill="#fff" stroke="red" stroke-width=".001"/><circle cx=".212" cy="-.265" r=".003" fill="#6d3bff"/></g><g><polyline stroke="gray" stroke-width=".002" points=".325 -.541 .352 -.545"><title>ΔE2k = 5.734</title></polyline><circle cx=".352" cy="-.545" r=".002" fill="#fff" stroke="red" stroke-width=".001"/><circle cx=".325" cy="-.541" r=".003" fill="#dc7100"/></g><g><polyline stroke="gray" stroke-width=".002" points=".213 -.492 .214 -.492"><title>ΔE2k = 0.929</title></polyline><circle cx=".214" cy="-.492" r=".002" fill="#fff" stroke="red" stroke-width=".001"/><circle cx=".213" cy="-.492" r=".003" fill="#fff7f1"/></g><g><polyline stroke="gray" stroke-width=".002" points=".196 -.347 .195 -.34"><title>ΔE2k = 0.957</title></polyline><circle cx=".195" cy="-.34" r=".002" fill="rgb(39.213% 39.216% 89.303%)" stroke="gray" stroke-width=".001"/><circle cx=".196" cy="-.347" r=".003" fill="#6464dc"/></g><g><polyline stroke="gray" stroke-width=".002" points=".162 -.503 .148 -.505"><title>ΔE2k = 3.664</title></polyline><circle cx=".148" cy="-.505" r=".002" fill="rgb(17.006% 61.654% 50.411%)" stroke="gray" stroke-width=".001"/><circle cx=".162" cy="-.503" r=".003" fill="#509b82"/></g><g><polyline stroke="gray" stroke-width=".002" points=".301 -.457 .321 -.455"><title>ΔE2k = 2.758</title></polyline><circle cx=".321" cy="-.455" r=".002" fill="rgb(71.815% 28.641% 51.794%)" stroke="gray" stroke-width=".001"/><circle cx=".301" cy="-.457" r=".003" fill="#aa5082"/></g><g><polyline stroke="gray" stroke-width=".002" points=".325 -.541 .352 -.545"><title>ΔE2k = 5.734</title></polyline><circle cx=".352" cy="-.545" r=".002" fill="#fff" stroke="red" stroke-width=".001"/><circle cx=".325" cy="-.541" r=".003" fill="#dc7100"/></g><g><polyline stroke="gray" stroke-width=".002" points=".162 -.503 .148 -.505"><title>ΔE2k = 3.664</title></polyline><circle cx=".148" cy="-.505" r=".002" fill="rgb(17.006% 61.654% 50.411%)" stroke="gray" stroke-width=".001"/><circle cx=".162" cy="-.503" r=".003" fill="#509b82"/></g><g><polyline stroke="gray" stroke-width=".002" points=".215 -.486 .217 -.486"><title>ΔE2k = 1.374</title></polyline><circle cx=".217" cy="-.486" r=".002" fill="#fff" stroke="red" stroke-width=".001"/><circle cx=".215" cy="-.486" r=".003" fill="#fff2f7"/></g><g><polyline stroke="gray" stroke-width=".002" points=".325 -.541 .352 -.545"><title>ΔE2k = 5.734</title></polyline><circle cx=".352" cy="-.545" r=".002" fill="#fff" stroke="red" stroke-width=".001"/><circle cx=".325" cy="-.541" r=".003" fill="#DC7100"/></g><g><polyline stroke="gray" stroke-width=".002" points=".162 -.503 .148 -.505"><title>ΔE2k = 3.664</title></polyline><circle cx=".148" cy="-.505" r=".002" fill="rgb(17.006% 61.654% 50.411%)" stroke="gray" stroke-width=".001"/><circle cx=".162" cy="-.503" r=".003" fill="#509B82"/></g><g><polyline stroke="gray" stroke-width=".002" points=".301 -.457 .321 -.455"><title>ΔE2k = 2.758</title></polyline><circle cx=".321" cy="-.455" r=".002" fill="rgb(71.815% 28.641% 51.794%)" stroke="gray" stroke-width=".001"/><circle cx=".301" cy="-.457" r=".003" fill="#AA5082"/></g><g><polyline stroke="gray" stroke-width=".002" points=".206 -.485 .205 -.484"><title>ΔE2k = 0.193</title></polyline><circle cx=".205" cy="-.484" r=".002" fill="rgb(11.674% 12.173% 12.596%)" stroke="gray" stroke-width=".001"/><circle cx=".206" cy="-.485" r=".003" fill="#1e1f20"/></g><g><polyline stroke="gray" stroke-width=".002" points=".16 -.379 .15 -.371"><title>ΔE2k = 2.297</title></polyline><circle cx=".15" cy="-.371" r=".002" fill="#fff" stroke="red" stroke-width=".001"/><circle cx=".16" cy="-.379" r=".003" fill="#082e54"/></g><g><polyline stroke="gray" stroke-width=".002" points=".41 -.518 .448 -.519"><title>ΔE2k = 3.59</title></polyline><circle cx=".448" cy="-.519" r=".002" fill="rgb(94.475% 5.138% 14.975%)" stroke="gray" stroke-width=".001"/><circle cx=".41" cy="-.518" r=".003" fill="#d33"/></g><g><polyline stroke="gray" stroke-width=".002" points=".187 -.445 .181 -.44"><title>ΔE2k = 1.882</title></polyline><circle cx=".181" cy="-.44" r=".002" fill="rgb(28.759% 39.501% 52.515%)" stroke="gray" stroke-width=".001"/><circle cx=".187" cy="-.445" r=".003" fill="#4f6483"/></g><g><polyline stroke="gray" stroke-width=".002" points=".206 -.484 .205 -.484"><title>ΔE2k = 0.666</title></polyline><circle cx=".205" cy="-.484" r=".002" fill="rgb(84.965% 87.896% 90.484%)" stroke="gray" stroke-width=".001"/><circle cx=".206" cy="-.484" r=".003" fill="#dae0e6"/></g><g><polyline stroke="gray" stroke-width=".002" points=".213 -.488 .214 -.488"><title>ΔE2k = 1.003</title></polyline><circle cx=".214" cy="-.488" r=".002" fill="#fff" stroke="red" stroke-width=".001"/><circle cx=".213" cy="-.488" r=".003" fill="#fff6f8"/></g><g><polyline stroke="gray" stroke-width=".002" points=".286 -.546 .298 -.552"><title>ΔE2k = 5.777</title></polyline><circle cx=".298" cy="-.552" r=".002" fill="#fff" stroke="red" stroke-width=".001"/><circle cx=".286" cy="-.546" r=".003" fill="orange"/></g><g><polyline stroke="gray" stroke-width=".002" points=".248 -.551 .255 -.557"><title>ΔE2k = 4.606</title></polyline><circle cx=".255" cy="-.557" r=".002" fill="#fff" stroke="red" stroke-width=".001"/><circle cx=".248" cy="-.551" r=".003" fill="#FFCE00"/></g><g><polyline stroke="gray" stroke-width=".002" points=".209 -.488 .209 -.488"><title>ΔE2k = 0.033</title></polyline><circle cx=".209" cy="-.488" r=".002" fill="rgb(12.899% 12.9% 12.902%)" stroke="gray" stroke-width=".001"/><circle cx=".209" cy="-.488" r=".003" fill="#212121"/></g><g><polyline stroke="gray" stroke-width=".002" points=".209 -.488 .209 -.488"><title>ΔE2k = 0.014</title></polyline><circle cx=".209" cy="-.488" r=".002" fill="rgb(74.495% 74.501% 74.508%)" stroke="gray" stroke-width=".001"/><circle cx=".209" cy="-.488" r=".003" fill="#bebebe"/></g><g><polyline stroke="gray" stroke-width=".002" points=".215 -.553 .216 -.561"><title>ΔE2k = 4.456</title></polyline><circle cx=".216" cy="-.561" r=".002" fill="#fff" stroke="red" stroke-width=".001"/><circle cx=".215" cy="-.553" r=".003" fill="#ee2"/></g><g><polyline stroke="gray" stroke-width=".002" points=".21 -.494 .21 -.495"><title>ΔE2k = 0.481</title></polyline><circle cx=".21" cy="-.495" r=".002" fill="rgb(92.893% 92.901% 87.729%)" stroke="gray" stroke-width=".001"/><circle cx=".21" cy="-.494" r=".003" fill="#edede1"/></g><g><polyline stroke="gray" stroke-width=".002" points=".217 -.554 .218 -.562"><title>ΔE2k = 5.012</title></polyline><circle cx=".218" cy="-.562" r=".002" fill="#fff" stroke="red" stroke-width=".001"/><circle cx=".217" cy="-.554" r=".003" fill="#fffc00"/></g><g><polyline stroke="gray" stroke-width=".002" points=".209 -.488 .209 -.488"><title>ΔE2k = 0.005</title></polyline><circle cx=".209" cy="-.488" r=".002" fill="rgb(19.998% 20% 20.003%)" stroke="gray" stroke-width=".001"/><circle cx=".209" cy="-.488" r=".003" fill="#333"/></g><g><polyline stroke="gray" stroke-width=".002" points=".328 -.39 .35 -.389"><title>ΔE2k = 2.236</title></polyline><circle cx=".35" cy="-.389" r=".002" fill="rgb(44.724% 0.068% 38.857%)" stroke="gray" stroke-width=".001"/><circle cx=".328" cy="-.39" r=".003" fill="#681160"/></g><g><polyline stroke="gray" stroke-width=".002" points=".414 -.488 .45 -.488"><title>ΔE2k = 3.311</title></polyline><circle cx=".45" cy="-.488" r=".002" fill="#fff" stroke="red" stroke-width=".001"/><circle cx=".414" cy="-.488" r=".003" fill="#e91e63"/></g><g><polyline stroke="gray" stroke-width=".002" points=".21 -.488 .21 -.488"><title>ΔE2k = 0.134</title></polyline><circle cx=".21" cy="-.488" r=".002" fill="rgb(87.95% 87.071% 87.095%)" stroke="gray" stroke-width=".001"/><circle cx=".21" cy="-.488" r=".003" fill="#e0dede"/></g><g><polyline stroke="gray" stroke-width=".002" points=".153 -.402 .142 -.397"><title>ΔE2k = 3.423</title></polyline><circle cx=".142" cy="-.397" r=".002" fill="#fff" stroke="red" stroke-width=".001"/><circle cx=".153" cy="-.402" r=".003" fill="#00a1f3"/></g><g><polyline stroke="gray" stroke-width=".002" points=".22 -.258 .225 -.255"><title>ΔE2k = 1.528</title></polyline><circle cx=".225" cy="-.255" r=".002" fill="rgb(38.778% 11.805% 82.808%)" stroke="gray" stroke-width=".001"/><circle cx=".22" cy="-.258" r=".003" fill="#5b23cb"/></g><g><polyline stroke="gray" stroke-width=".002" points=".137 -.549 .112 -.559"><title>ΔE2k = 4.958</title></polyline><circle cx=".112" cy="-.559" r=".002" fill="#fff" stroke="red" stroke-width=".001"/><circle cx=".137" cy="-.549" r=".003" fill="#03d658"/></g><g><polyline stroke="gray" stroke-width=".002" points=".2 -.483 .198 -.482"><title>ΔE2k = 1.918</title></polyline><circle cx=".198" cy="-.482" r=".002" fill="rgb(85.814% 94.781% 98.033%)" stroke="gray" stroke-width=".001"/><circle cx=".2" cy="-.483" r=".003" fill="#e3f5fd"/></g><g><polyline stroke="gray" stroke-width=".002" points=".422 -.529 .461 -.531"><title>ΔE2k = 7.14</title></polyline><circle cx=".461" cy="-.531" r=".002" fill="#fff" stroke="red" stroke-width=".001"/><circle cx=".422" cy="-.529" r=".003" fill="#ff3900"/></g><g><polyline stroke="gray" stroke-width=".002" points=".209 -.488 .209 -.488"><title>ΔE2k = 0.028</title></polyline><circle cx=".209" cy="-.488" r=".002" fill="rgb(97.293% 97.301% 97.31%)" stroke="gray" stroke-width=".001"/><circle cx=".209" cy="-.488" r=".003" fill="#f8f8f8"/></g><g><polyline stroke="gray" stroke-width=".002" points=".29 -.54 .309 -.544"><title>ΔE2k = 3.921</title></polyline><circle cx=".309" cy="-.544" r=".002" fill="#fff" stroke="red" stroke-width=".001"/><circle cx=".29" cy="-.54" r=".003" fill="#f29832"/></g><g><polyline stroke="gray" stroke-width=".002" points=".144 -.52 .123 -.524"><title>ΔE2k = 4.604</title></polyline><circle cx=".123" cy="-.524" r=".002" fill="#fff" stroke="red" stroke-width=".001"/><circle cx=".144" cy="-.52" r=".003" fill="#26ad79"/></g><g><polyline stroke="gray" stroke-width=".002" points=".209 -.488 .209 -.488"><title>ΔE2k = 0.015</title></polyline><circle cx=".209" cy="-.488" r=".002" fill="#fff" stroke="red" stroke-width=".001"/><circle cx=".209" cy="-.488" r=".003" fill="#FFF"/></g><g><polyline stroke="gray" stroke-width=".002" points=".209 -.485 .209 -.485"><title>ΔE2k = 0.234</title></polyline><circle cx=".209" cy="-.485" r=".002" fill="rgb(94.893% 94.901% 97.06%)" stroke="gray" stroke-width=".001"/><circle cx=".209" cy="-.485" r=".003" fill="#F2F2F7"/></g><g><polyline stroke="gray" stroke-width=".002" points=".209 -.484 .209 -.484"><title>ΔE2k = 0.137</title></polyline><circle cx=".209" cy="-.484" r=".002" fill="rgb(21.168% 21.17% 22.039%)" stroke="gray" stroke-width=".001"/><circle cx=".209" cy="-.484" r=".003" fill="#363638"/></g><g><polyline stroke="gray" stroke-width=".002" points=".209 -.484 .209 -.483"><title>ΔE2k = 0.25</title></polyline><circle cx=".209" cy="-.483" r=".002" fill="rgb(55.676% 55.681% 57.834%)" stroke="gray" stroke-width=".001"/><circle cx=".209" cy="-.484" r=".003" fill="#8E8E93"/></g><g><polyline stroke="gray" stroke-width=".002" points=".161 -.332 .153 -.323"><title>ΔE2k = 2.847</title></polyline><circle cx=".153" cy="-.323" r=".002" fill="#fff" stroke="red" stroke-width=".001"/><circle cx=".161" cy="-.332" r=".003" fill="#007AFF"/></g><g><polyline stroke="gray" stroke-width=".002" points=".209 -.485 .209 -.485"><title>ΔE2k = 0.236</title></polyline><circle cx=".209" cy="-.485" r=".002" fill="rgb(89.794% 89.801% 91.959%)" stroke="gray" stroke-width=".001"/><circle cx=".209" cy="-.485" r=".003" fill="#E5E5EA"/></g><g><polyline stroke="gray" stroke-width=".002" points=".415 -.522 .453 -.523"><title>ΔE2k = 3.996</title></polyline><circle cx=".453" cy="-.523" r=".002" fill="#fff" stroke="red" stroke-width=".001"/><circle cx=".415" cy="-.522" r=".003" fill="#FF3B30"/></g><g><polyline stroke="gray" stroke-width=".002" points=".152 -.413 .138 -.405"><title>ΔE2k = 3.488</title></polyline><circle cx=".138" cy="-.405" r=".002" fill="#fff" stroke="red" stroke-width=".001"/><circle cx=".152" cy="-.413" r=".003" fill="#0071A4"/></g><g><polyline stroke="gray" stroke-width=".002" points=".144 -.545 .122 -.553"><title>ΔE2k = 4.257</title></polyline><circle cx=".122" cy="-.553" r=".002" fill="#fff" stroke="red" stroke-width=".001"/><circle cx=".144" cy="-.545" r=".003" fill="#248A3D"/></g><g><polyline stroke="gray" stroke-width=".002" points=".195 -.324 .194 -.317"><title>ΔE2k = 0.949</title></polyline><circle cx=".194" cy="-.317" r=".002" fill="rgb(34.67% 33.687% 87.005%)" stroke="gray" stroke-width=".001"/><circle cx=".195" cy="-.324" r=".003" fill="#5856D6"/></g><g><polyline stroke="gray" stroke-width=".002" points=".263 -.365 .275 -.361"><title>ΔE2k = 2.5</title></polyline><circle cx=".275" cy="-.361" r=".002" fill="rgb(73.926% 29.309% 89.989%)" stroke="gray" stroke-width=".001"/><circle cx=".263" cy="-.365" r=".003" fill="#AF52DE"/></g><g><polyline stroke="gray" stroke-width=".002" points=".304 -.544 .327 -.548"><title>ΔE2k = 5.57</title></polyline><circle cx=".327" cy="-.548" r=".002" fill="#fff" stroke="red" stroke-width=".001"/><circle cx=".304" cy="-.544" r=".003" fill="#FF9500"/></g><g><polyline stroke="gray" stroke-width=".002" points=".209 -.485 .209 -.485"><title>ΔE2k = 0.115</title></polyline><circle cx=".209" cy="-.485" r=".002" fill="rgb(28.228% 28.23% 29.089%)" stroke="gray" stroke-width=".001"/><circle cx=".209" cy="-.485" r=".003" fill="#48484A"/></g></g></svg>